<svg width="260" height="318" viewBox="0 0 260 318" fill="none" xmlns="http://www.w3.org/2000/svg">
<g opacity="0.08" clip-path="url(#clip0_11128_30749)">
<path d="M25.61 317.1L21.49 310.93H18.16V317.1H13.92V297.84H22.72C27.26 297.84 29.98 300.23 29.98 304.2V304.25C29.98 307.36 28.3 309.31 25.86 310.22L30.56 317.1H25.61ZM25.69 304.41C25.69 302.59 24.43 301.66 22.36 301.66H18.15V307.19H22.44C24.5 307.19 25.69 306.09 25.69 304.47V304.41Z" fill="black"/>
<path d="M37.6407 317.1V297.84H52.1707V301.61H41.8507V305.52H50.9307V309.29H41.8507V313.33H52.3007V317.1H37.6407Z" fill="black"/>
<path d="M74.2607 317.1L72.5107 312.81H64.4307L62.6807 317.1H58.3907L66.5807 297.84H70.4507L78.6407 317.1H74.2507H74.2607ZM68.3907 302.79L65.8307 309.03H70.9507L68.3907 302.79Z" fill="black"/>
<path d="M85.4493 317.1V297.84H89.6893V313.24H99.2893V317.1H85.4493Z" fill="black"/>
<path d="M118.381 317.1V297.84H132.911V301.61H122.591V305.52H131.671V309.29H122.591V313.33H133.051V317.1H118.391H118.381Z" fill="black"/>
<path d="M147.49 317.37C144.57 317.37 141.63 316.35 139.32 314.28L141.82 311.28C143.56 312.71 145.37 313.62 147.57 313.62C149.3 313.62 150.35 312.93 150.35 311.8V311.75C150.35 310.67 149.69 310.13 146.47 309.3C142.6 308.31 140.09 307.23 140.09 303.42V303.36C140.09 299.87 142.89 297.56 146.83 297.56C149.64 297.56 152.03 298.44 153.98 300.01L151.78 303.2C150.07 302.02 148.39 301.3 146.78 301.3C145.17 301.3 144.3 302.05 144.3 302.98V303.03C144.3 304.3 145.13 304.71 148.46 305.56C152.36 306.58 154.57 307.98 154.57 311.34V311.39C154.57 315.21 151.66 317.36 147.5 317.36L147.49 317.37Z" fill="black"/>
<path d="M170.8 301.739V317.099H166.56V301.739H160.69V297.829H176.65V301.739H170.79H170.8Z" fill="black"/>
<path d="M198.1 317.1L196.35 312.81H188.27L186.52 317.1H182.23L190.42 297.84H194.3L202.49 317.1H198.1ZM192.23 302.79L189.67 309.03H194.79L192.24 302.79H192.23Z" fill="black"/>
<path d="M218 301.739V317.099H213.76V301.739H207.9V297.829H223.86V301.739H218Z" fill="black"/>
<path d="M230.93 317.1V297.84H245.46V301.61H235.14V305.52H244.22V309.29H235.14V313.33H245.59V317.1H230.93Z" fill="black"/>
<path d="M13.92 253.2V174.3H73.42V189.73H31.16V205.75H68.35V221.19H31.16V237.76H73.99V253.2H13.92Z" fill="black"/>
<path d="M150.239 244.58L143.529 234.76L136.859 225.02C146.899 221.29 153.769 213.3 153.769 200.56V200.33C153.769 184.1 142.619 174.3 124.009 174.3H87.9493V246.19C87.9493 251.5 92.2493 253.2 97.5593 253.2H105.309V227.95H118.939L132.939 248.85L133.179 249.21C134.879 251.62 137.679 253.2 140.859 253.2H156.129L150.229 244.58H150.239ZM136.189 201.46C136.189 208.1 131.349 212.61 122.889 212.61H105.319V189.96H122.559C131.009 189.96 136.199 193.79 136.199 201.24V201.47L136.189 201.46Z" fill="black"/>
<path d="M212.011 174.3H196.131L170.541 234.45L164.921 247.64L162.561 253.2H173.651C177.631 253.2 181.061 250.78 182.521 247.33L182.541 247.3L187.301 235.63H220.431L227.591 253.21H245.611L212.031 174.31L212.011 174.3ZM193.441 220.11L203.851 194.69L214.251 220.11H193.431H193.441Z" fill="black"/>
<path d="M245.59 267.64H13.9199V283.42H245.59V267.64Z" fill="black"/>
<path d="M127.76 3.9V107.04L2 163.84V94.3L127.76 3.9ZM129.76 0L0 93.28V166.94L129.76 108.33V0Z" fill="black"/>
<path d="M259.52 166.94L129.75 108.33V0L259.52 93.28V166.94Z" fill="black"/>
</g>
<defs>
<clipPath id="clip0_11128_30749">
<rect width="260" height="318" fill="white"/>
</clipPath>
</defs>
</svg>
