<svg class="layer-1" width="337" height="183" viewBox="0 0 337 183" fill="none" xmlns="http://www.w3.org/2000/svg">
    <path d="M334.724 131.325C334.44 131.325 334.148 131.27 333.881 131.159L333.071 130.825C332.577 130.627 332.164 130.46 331.75 130.277C295.197 114.129 240.934 90.2317 234.032 87.3656C227.13 90.2317 172.867 114.121 136.322 130.269C135.908 130.452 135.495 130.619 135.001 130.817L134.191 131.151C133.518 131.429 132.749 131.357 132.149 130.96C131.542 130.563 131.177 129.904 131.177 129.19V127.26C131.177 121.52 131.153 113.748 131.129 105.896C131.064 84.0152 131.161 72.8261 131.42 72.3286C131.679 71.831 150.215 58.6942 187.028 32.918C202.955 21.7633 219.425 10.2196 231.31 1.86748C231.634 1.63724 231.966 1.42288 232.339 1.1847L232.825 0.867128C233.562 0.382832 234.518 0.382832 235.247 0.867128L235.693 1.16088C236.082 1.41494 236.422 1.63724 236.762 1.87542C248.671 10.2514 265.174 21.8109 281.133 32.9974C317.886 58.7418 336.393 71.8602 336.652 72.3524C336.906 72.834 337 84.0205 336.935 105.912C336.911 113.772 336.887 121.544 336.887 127.276V129.206C336.887 129.92 336.522 130.587 335.915 130.976C335.55 131.214 335.137 131.333 334.716 131.333L334.724 131.325ZM135.479 74.4007C135.398 78.0925 135.447 92.7802 135.479 105.888C135.503 113.168 135.52 120.377 135.528 125.966C150.604 119.305 175.005 108.54 195.777 99.4095C232.217 83.3959 233.343 82.9593 234.024 82.9593H234.056C234.737 82.9593 235.863 83.3959 272.303 99.4095C293.01 108.508 317.435 119.281 332.552 125.966C332.552 120.377 332.577 113.168 332.601 105.888C332.642 92.7802 332.682 78.0925 332.601 74.4007C328.072 71.098 302.95 53.5045 278.606 36.451C262.646 25.2645 246.135 13.7049 234.226 5.329C234.162 5.28137 234.097 5.24167 234.032 5.19404C233.967 5.23373 233.902 5.28137 233.838 5.329C221.953 13.6891 205.483 25.2248 189.556 36.3875C165.162 53.4728 140 71.1059 135.471 74.4007H135.479Z" fill="#EE2647"/>
    <path d="M2.27657 182.501C1.8553 182.501 1.43403 182.382 1.07757 182.144C0.469966 181.747 0.105405 181.088 0.105405 180.373V178.444C0.105405 172.704 0.0811008 164.931 0.0567968 157.08C-0.00801405 135.199 0.0892022 124.01 0.348445 123.512C0.607689 123.015 19.1301 109.886 55.9156 84.1255C71.8591 72.955 88.3372 61.4113 100.23 53.0512C100.554 52.821 100.886 52.6066 101.259 52.3605L101.737 52.0429C102.474 51.5586 103.43 51.5586 104.159 52.0429L104.613 52.3367C105.002 52.5907 105.342 52.813 105.674 53.0512C117.567 61.4192 134.053 72.9629 149.988 84.1255C186.779 109.902 205.305 123.033 205.564 123.52C205.818 124.002 205.912 135.186 205.847 157.072C205.823 164.931 205.799 172.704 205.799 178.436V180.365C205.799 181.08 205.434 181.739 204.827 182.136C204.219 182.533 203.449 182.604 202.785 182.326L201.983 182.001C201.489 181.802 201.068 181.628 200.654 181.453C164.109 165.305 109.846 141.415 102.936 138.549C96.0335 141.415 41.7707 165.305 5.22546 181.453C4.81229 181.636 4.39912 181.802 3.91304 182.001L3.1029 182.334C2.83556 182.446 2.54391 182.501 2.26036 182.501H2.27657ZM102.976 134.135C103.657 134.135 104.783 134.572 141.223 150.585C161.97 159.699 186.38 170.473 201.473 177.142C201.473 171.553 201.497 164.344 201.521 157.064C201.562 143.956 201.602 129.268 201.521 125.576C196.984 122.274 171.838 104.656 147.469 87.5871C131.526 76.4165 115.039 64.8728 103.146 56.5048C103.082 56.4571 103.017 56.4175 102.952 56.3698C102.887 56.4095 102.822 56.4571 102.766 56.5048C90.8729 64.8728 74.3867 76.4165 58.4432 87.5871C34.0663 104.664 8.91967 122.282 4.39102 125.576C4.31001 129.268 4.35861 143.956 4.39102 157.064C4.41532 164.344 4.43153 171.553 4.43963 177.142C19.5243 170.473 43.9337 159.707 64.6894 150.585C101.129 134.572 102.255 134.135 102.936 134.135C102.944 134.135 102.96 134.135 102.968 134.135H102.976Z" fill="#EE2647"/>
</svg>
